<svg xmlns="http://www.w3.org/2000/svg" width="20" height="20" viewBox="0 0 24 24" fill="currentColor" aria-hidden="true">
  <path d="M12.04 2C6.52 2 2.03 6.49 2.03 12c0 1.77.46 3.48 1.33 4.99L2 22l5.2-1.36A9.93 9.93 0 0 0 12.04 22C17.56 22 22.05 17.51 22.05 12S17.56 2 12.04 2zm5.83 13.42c-.25.7-1.45 1.35-2.03 1.43-.53.07-1.2.1-1.94-.12-.45-.14-1.03-.33-1.78-.66-3.13-1.36-5.17-4.53-5.33-4.74-.15-.2-1.27-1.69-1.27-3.22 0-1.53.8-2.28 1.08-2.6.28-.31.61-.39.82-.39.2 0 .41 0 .59.01.19.01.44-.07.69.53.25.6.85 2.08.93 2.23.08.15.13.33.02.53-.11.2-.16.33-.32.5-.16.18-.34.4-.48.53-.16.16-.33.33-.14.65.2.31.88 1.44 1.9 2.34 1.3 1.15 2.39 1.5 2.71 1.67.32.16.51.14.7-.08.19-.22.8-.93 1.02-1.25.22-.31.43-.26.73-.15.3.11 1.9.9 2.23 1.07.33.17.55.25.63.39.08.14.08.82-.17 1.52z"></path>
</svg>
