<svg width="24" height="24" viewBox="0 0 24 24" fill="none" xmlns="http://www.w3.org/2000/svg">
  <path fill="#25D366" d="M12 2a10 10 0 00-8.66 15.02L2 22l5.11-1.34A10
    10 0 1012 2zm0 18a8 8 0 01-4.11-1.14l-.3-.18-3.03.8.81-2.95-.2-.3A8
    8 0 1112 20zm4.2-5.6c-.23-.12-1.35-.66-1.56-.73-.21-.08-.36-.12-.51.12-.15.23-.58.73-.71.88-.13.15-.26.17-.49.06a6.5
    6.5 0 01-1.91-1.18 7.2 7.2 0 01-1.33-1.66c-.14-.23 0-.35.1-.47.1-.1.23-.26.35-.38.12-.12.15-.21.23-.35.08-.15.04-.29-.02-.41-.06-.12-.51-1.23-.7-1.68-.18-.44-.37-.38-.51-.38h-.43c-.15 0-.38.06-.58.29-.2.23-.76.74-.76 1.8s.78 2.09.89 2.23c.12.15 1.54 2.35 3.74 3.3.52.23.93.37 1.25.47.52.17.99.15 1.36.09.42-.06 1.35-.55 1.54-1.08.19-.53.19-.99.13-1.08-.06-.1-.21-.15-.44-.26z"></path>
</svg>
